# xmcd
#
# Track frame offsets: 
#        150
#        29358
#        57982
#        73383
#        88741
#        107172
#        126538
#        140009
#        157738
#        178694
#        200663
#        214649
#        232780
#
# Disc length: 3426 seconds
#
# Revision: 0
# Processed by: cddbd v1.5.2PL0 Copyright (c) Steve Scherf et al.
# Submitted via: ExactAudioCopy v0.99pb5
#
DISCID=c00d600d
DTITLE=Jamey Johnson - The Guitar Song - White Album
DYEAR=2010
DGENRE=Country
TTITLE0=By The Seat Of Your Pants
TTITLE1=California Riots
TTITLE2=Dog In The Yard
TTITLE3=The Guitar Song (feat. Bill Anderson)
TTITLE4=That's Why I Write Songs
TTITLE5=Macon
TTITLE6=Thankful For The Rain
TTITLE7=Good Morning Sunrise
TTITLE8=Front Porch Swing Afternoon
TTITLE9=I Remember You
TTITLE10=Good Times Ain't What They Used To Be
TTITLE11=For The Good Times
TTITLE12=My Way To You
EXTD=
EXTT0=
EXTT1=
EXTT2=
EXTT3=
EXTT4=
EXTT5=
EXTT6=
EXTT7=
EXTT8=
EXTT9=
EXTT10=
EXTT11=
EXTT12=
PLAYORDER=
